<svg width="88" height="71" viewBox="0 0 88 71" fill="none" xmlns="http://www.w3.org/2000/svg">
<path d="M12.5169 70.9023H76.5794C83.513 70.9023 87.6146 66.8008 87.6146 58.5977V19.3398C87.6146 11.1367 83.4642 7.08399 75.1634 7.08399H44.5911C42.1985 7.08399 40.636 6.4004 38.7806 4.8867L36.3392 2.93359C33.8001 0.833994 31.7005 0.101593 27.9896 0.101593H11.0521C4.16725 0.101593 0.0656738 4.10549 0.0656738 12.2598V58.5977C0.0656738 66.8008 4.21605 70.9023 12.5169 70.9023ZM12.6146 63.8223C9.09885 63.8223 7.09695 61.9668 7.09695 58.2559V12.6016C7.09695 8.98829 9.05005 7.13279 12.5657 7.13279H26.1341C28.5267 7.13279 30.0892 7.81639 31.9446 9.33009C33.8 10.8438 34.386 11.2832 34.386 11.2832C36.8763 13.334 39.0247 14.1152 42.7356 14.1152H75.0657C78.5813 14.1152 80.5833 16.0195 80.5833 19.7305V58.3047C80.5833 61.9668 78.5813 63.8223 75.0657 63.8223H12.6146ZM4.36255 28.0312H83.2689V21.4395H4.36255V28.0312Z" fill="#DDDDDD"/>
</svg>
