<svg width="96" height="73" viewBox="0 0 96 73" fill="none" xmlns="http://www.w3.org/2000/svg">
<path d="M12.5169 72.9023H76.5794C83.513 72.9023 87.6146 68.8008 87.6146 60.5977V21.3398C87.6146 13.1367 83.4642 9.08399 75.1634 9.08399H44.5911C42.1985 9.08399 40.636 8.4004 38.7806 6.8867L36.3392 4.93359C33.8001 2.83399 31.7005 2.10159 27.9896 2.10159H11.0521C4.16725 2.10159 0.0656738 6.10549 0.0656738 14.2598V60.5977C0.0656738 68.8008 4.21605 72.9023 12.5169 72.9023ZM12.6146 65.8223C9.09885 65.8223 7.09695 63.9668 7.09695 60.2559V14.6016C7.09695 10.9883 9.05005 9.13279 12.5657 9.13279H26.1341C28.5267 9.13279 30.0892 9.81639 31.9446 11.3301C33.8 12.8438 34.386 13.2832 34.386 13.2832C36.8763 15.334 39.0247 16.1152 42.7356 16.1152H75.0657C78.5813 16.1152 80.5833 18.0195 80.5833 21.7305V60.3047C80.5833 63.9668 78.5813 65.8223 75.0657 65.8223H12.6146ZM4.36255 30.0312H83.2689V23.4395H4.36255V30.0312Z" fill="#DDDDDD"/>
<path d="M77.5 37C87.5685 37 96 28.5683 96 18.5C96 8.36058 87.6391 0 77.5 0C67.3249 0 59 8.36058 59 18.5C59 28.6751 67.3249 37 77.5 37Z" fill="#202225"/>
<path d="M77.518 33C85.3521 33 92 26.4157 92 18.5C92 10.5484 85.4595 4 77.518 4C69.5763 4 63 10.5484 63 18.5C63 26.4876 69.5763 33 77.518 33Z" fill="#6BD35F"/>
<path d="M77.5171 27C76.4313 27 75.7526 26.2888 75.7526 25.239V20.261H70.7645C69.7126 20.261 69 19.5498 69 18.5C69 17.4502 69.7126 16.739 70.7645 16.739H75.7526V11.761C75.7526 10.7112 76.4313 10 77.5171 10C78.569 10 79.2816 10.7112 79.2816 11.761V16.739H84.2696C85.3217 16.739 86 17.4502 86 18.5C86 19.5498 85.3217 20.261 84.2696 20.261H79.2816V25.239C79.2816 26.2888 78.569 27 77.5171 27Z" fill="white"/>
</svg>
