<svg width="33" height="33" viewBox="0 0 33 33" fill="none" xmlns="http://www.w3.org/2000/svg">
    <path d="M16.5 6.875C11.1939 6.875 6.875 11.1939 6.875 16.5C6.875 21.8061 11.1939 26.125 16.5 26.125C21.8061 26.125 26.125 21.8061 26.125 16.5C26.125 11.1939 21.8061 6.875 16.5 6.875ZM16.5 23.375C12.7091 23.375 9.625 20.2909 9.625 16.5C9.625 12.7091 12.7091 9.625 16.5 9.625C20.2909 9.625 23.375 12.7091 23.375 16.5C23.375 20.2909 20.2909 23.375 16.5 23.375Z" fill="#F92C47" />
    <path d="M16.5 12.375C14.2629 12.375 12.375 14.2629 12.375 16.5C12.375 18.7371 14.2629 20.625 16.5 20.625C18.7371 20.625 20.625 18.7371 20.625 16.5C20.625 14.2629 18.7371 12.375 16.5 12.375Z" fill="#F92C47" />
</svg> 